<svg xmlns="http://www.w3.org/2000/svg" width="64" height="64" viewBox="0 0 64 64">
  <defs>
    <linearGradient id="skin" x1="0%" y1="0%" x2="100%" y2="100%">
      <stop offset="0%" stop-color="#f5d0a9" />
      <stop offset="100%" stop-color="#d2a679" />
    </linearGradient>
    <linearGradient id="wig" x1="0%" y1="0%" x2="100%" y2="100%">
      <stop offset="0%" stop-color="#f5f5f5" />
      <stop offset="100%" stop-color="#e0e0e0" />
    </linearGradient>
    <linearGradient id="coat" x1="0%" y1="0%" x2="100%" y2="100%">
      <stop offset="0%" stop-color="#7b1fa2" />
      <stop offset="100%" stop-color="#4a148c" />
    </linearGradient>
    <linearGradient id="waistcoat" x1="0%" y1="0%" x2="100%" y2="100%">
      <stop offset="0%" stop-color="#c5cae9" />
      <stop offset="100%" stop-color="#9fa8da" />
    </linearGradient>
  </defs>
  
  <!-- Background -->
  <circle cx="32" cy="32" r="30" fill="#f5f5dc" stroke="#daa520" stroke-width="2" />
  
  <!-- Body/Coat -->
  <rect x="24" y="35" width="16" height="23" rx="2" fill="url(#coat)" />
  
  <!-- Waistcoat -->
  <rect x="27" y="35" width="10" height="15" rx="1" fill="url(#waistcoat)" />
  
  <!-- Shirt Collar -->
  <path d="M27,35 L27,38 L32,40 L37,38 L37,35 Z" fill="#f5f5f5" />
  
  <!-- Head (smaller to represent his small stature) -->
  <circle cx="32" cy="25" r="10" fill="url(#skin)" />
  
  <!-- Powdered Wig -->
  <path d="M22,25 C22,19 26,15 32,15 C38,15 42,19 42,25 C42,27 41,29 40,30 C39,28 38,27 36,27 C36,24 34,22 32,22 C30,22 28,24 28,27 C26,27 24,28 23,30 C22,29 21,27 21,25 C21,23 20,22 22,25 Z" fill="url(#wig)" />
  
  <!-- Wig Curls -->
  <path d="M22,25 C22,28 23,31 24,33 C25,31 26,29 26,27 C26,25 24,23 22,25 Z" fill="url(#wig)" />
  <path d="M42,25 C42,28 41,31 40,33 C39,31 38,29 38,27 C38,25 40,23 42,25 Z" fill="url(#wig)" />
  <path d="M24,33 C24,35 25,37 26,38 C27,36 28,34 28,32 C28,30 26,28 24,33 Z" fill="url(#wig)" />
  <path d="M40,33 C40,35 39,37 38,38 C37,36 36,34 36,32 C36,30 38,28 40,33 Z" fill="url(#wig)" />
  
  <!-- Eyes -->
  <ellipse cx="29" cy="24" rx="1.2" ry="0.8" fill="#3e2723" />
  <ellipse cx="35" cy="24" rx="1.2" ry="0.8" fill="#3e2723" />
  
  <!-- Eyebrows -->
  <path d="M27,22 C28,21 30,21 31,22" fill="none" stroke="#3e2723" stroke-width="0.5" />
  <path d="M33,22 C34,21 36,21 37,22" fill="none" stroke="#3e2723" stroke-width="0.5" />
  
  <!-- Nose -->
  <path d="M32,24 L32,27 C32,28 33,28 33,27" fill="none" stroke="#d2a679" stroke-width="0.8" />
  
  <!-- Mouth -->
  <path d="M30,29 C31,30 33,30 34,29" fill="none" stroke="#a1887f" stroke-width="0.6" />
  
  <!-- Cravat -->
  <path d="M29,35 L29,39 L32,41 L35,39 L35,35 Z" fill="#f5f5f5" />
  <path d="M30,37 C31,38 33,38 34,37" fill="none" stroke="#e0e0e0" stroke-width="0.8" />
  <path d="M30,39 C31,40 33,40 34,39" fill="none" stroke="#e0e0e0" stroke-width="0.8" />
  
  <!-- Quill Pen -->
  <path d="M40,45 L36,42" fill="none" stroke="#795548" stroke-width="0.8" />
  <path d="M36,42 L38,40 L40,41 L39,43 Z" fill="#f5f5f5" />
  
  <!-- Scroll/Paper -->
  <rect x="38" y="46" width="5" height="7" rx="1" fill="#f5f5f5" />
  <path d="M38,48 L43,48" fill="none" stroke="#9e9e9e" stroke-width="0.3" />
  <path d="M38,50 L43,50" fill="none" stroke="#9e9e9e" stroke-width="0.3" />
  <path d="M38,52 L41,52" fill="none" stroke="#9e9e9e" stroke-width="0.3" />
</svg> 