<?xml version="1.0" encoding="UTF-8"?>
<svg width="100px" height="100px" viewBox="0 0 100 100" xmlns="http://www.w3.org/2000/svg">
  <g fill="none" fill-rule="evenodd">
    <circle fill="#F5EEE5" cx="50" cy="50" r="40"/>
    <path d="M67.5,47.5 L67.5,52.5 L32.5,52.5 L32.5,47.5 L67.5,47.5 Z" fill="#D1A163"/>
    <path d="M53.75,32.5 C53.75,32.5 48.75,37.5 40,37.5 C31.25,37.5 26.25,32.5 26.25,32.5 L26.25,27.5 C26.25,27.5 31.25,32.5 40,32.5 C48.75,32.5 53.75,27.5 53.75,27.5 L53.75,32.5 Z" fill="#D1A163"/>
    <path d="M73.75,32.5 C73.75,32.5 68.75,37.5 60,37.5 C51.25,37.5 46.25,32.5 46.25,32.5 L46.25,27.5 C46.25,27.5 51.25,32.5 60,32.5 C68.75,32.5 73.75,27.5 73.75,27.5 L73.75,32.5 Z" fill="#D1A163"/>
    <path d="M50,70 C34.561,70 25,64.411 25,55 L25,40 L75,40 L75,55 C75,64.411 65.439,70 50,70 Z" fill="#D1A163"/>
    <path d="M50,70 C59.113,70 66.409,68.475 70.898,65.421 C73.312,63.704 75,61.042 75,55 L75,40 L50,40 L50,70 Z" fill="#C18F59"/>
    <circle fill="#1E1E1E" cx="38" cy="50" r="2"/>
    <circle fill="#1E1E1E" cx="62" cy="50" r="2"/>
    <path d="M47,63 C47,61.343 48.343,60 50,60 C51.657,60 53,61.343 53,63" stroke="#1E1E1E" stroke-width="2" stroke-linecap="round"/>
    <rect fill="#4ECDC4" x="20" y="75" width="10" height="3" rx="1.5"/>
    <rect fill="#FF6B6B" x="35" y="75" width="10" height="3" rx="1.5"/>
    <rect fill="#7A5197" x="50" y="75" width="10" height="3" rx="1.5"/>
    <rect fill="#F9A825" x="65" y="75" width="10" height="3" rx="1.5"/>
    <path d="M50,35 C44.477,35 40,30.523 40,25 C40,19.477 44.477,15 50,15 C55.523,15 60,19.477 60,25 C60,30.523 55.523,35 50,35 Z" fill="#F5EEE5"/>
    <path d="M55,30 L45,30 C44.447,30 44,29.552 44,29 C44,28.448 44.447,28 45,28 L55,28 C55.553,28 56,28.448 56,29 C56,29.552 55.553,30 55,30 Z" fill="#D1A163"/>
    <path d="M48,23 C48,24.657 46.657,26 45,26 C43.343,26 42,24.657 42,23 C42,21.343 43.343,20 45,20 C46.657,20 48,21.343 48,23 Z" fill="#D1A163"/>
    <path d="M58,23 C58,24.657 56.657,26 55,26 C53.343,26 52,24.657 52,23 C52,21.343 53.343,20 55,20 C56.657,20 58,21.343 58,23 Z" fill="#D1A163"/>
    <path d="M46,23 C46,23.552 45.552,24 45,24 C44.448,24 44,23.552 44,23 C44,22.448 44.448,22 45,22 C45.552,22 46,22.448 46,23 Z" fill="#1E1E1E"/>
    <path d="M56,23 C56,23.552 55.552,24 55,24 C54.448,24 54,23.552 54,23 C54,22.448 54.448,22 55,22 C55.552,22 56,22.448 56,23 Z" fill="#1E1E1E"/>
  </g>
  <!-- Paintbrush -->
  <path d="M70,25 L85,10 C86.105,8.895 88,9.343 88,11 L88,15 C88,16.105 87.552,17.448 86.5,18.5 L70,35" fill="#795548" stroke="#5D4037" stroke-width="1"/>
  <rect fill="#FFCC80" x="68" y="23" width="4" height="14" rx="2" transform="rotate(-45 70 30)"/>
</svg>
