<svg xmlns="http://www.w3.org/2000/svg" width="64" height="64" viewBox="0 0 64 64">
  <defs>
    <linearGradient id="skin" x1="0%" y1="0%" x2="100%" y2="100%">
      <stop offset="0%" stop-color="#f5d0a9" />
      <stop offset="100%" stop-color="#d2a679" />
    </linearGradient>
    <linearGradient id="hair" x1="0%" y1="0%" x2="100%" y2="100%">
      <stop offset="0%" stop-color="#3e2723" />
      <stop offset="100%" stop-color="#1b0000" />
    </linearGradient>
    <linearGradient id="suit" x1="0%" y1="0%" x2="100%" y2="100%">
      <stop offset="0%" stop-color="#263238" />
      <stop offset="100%" stop-color="#000a12" />
    </linearGradient>
    <linearGradient id="flower" x1="0%" y1="0%" x2="100%" y2="100%">
      <stop offset="0%" stop-color="#81c784" />
      <stop offset="100%" stop-color="#4caf50" />
    </linearGradient>
  </defs>
  
  <!-- Background -->
  <circle cx="32" cy="32" r="30" fill="#f5f5dc" stroke="#daa520" stroke-width="2" />
  
  <!-- Body/Suit -->
  <rect x="22" y="35" width="20" height="25" rx="2" fill="url(#suit)" />
  
  <!-- Shirt Collar -->
  <path d="M28,35 L28,40 L32,42 L36,40 L36,35 Z" fill="#f5f5f5" />
  
  <!-- Head -->
  <circle cx="32" cy="25" r="12" fill="url(#skin)" />
  
  <!-- Hair -->
  <path d="M20,25 C20,18 25,13 32,13 C39,13 44,18 44,25 C44,27 43,29 42,30 C41,28 40,27 38,27 C38,24 36,22 34,22 C32,22 30,24 30,27 C28,27 26,28 25,30 C24,29 23,27 23,25 C23,23 22,22 20,25 Z" fill="url(#hair)" />
  
  <!-- Long Hair on Sides -->
  <path d="M20,25 C20,28 21,31 22,33 C23,31 24,29 24,27 C24,25 22,23 20,25 Z" fill="url(#hair)" />
  <path d="M44,25 C44,28 43,31 42,33 C41,31 40,29 40,27 C40,25 42,23 44,25 Z" fill="url(#hair)" />
  
  <!-- Mustache -->
  <path d="M28,29 C30,31 34,31 36,29 C34,32 30,32 28,29 Z" fill="url(#hair)" />
  
  <!-- Eyes -->
  <ellipse cx="28" cy="24" rx="1.5" ry="1" fill="#3e2723" />
  <ellipse cx="36" cy="24" rx="1.5" ry="1" fill="#3e2723" />
  
  <!-- Eyebrows -->
  <path d="M26,22 C27,21 29,21 30,22" fill="none" stroke="#3e2723" stroke-width="0.7" />
  <path d="M34,22 C35,21 37,21 38,22" fill="none" stroke="#3e2723" stroke-width="0.7" />
  
  <!-- Nose -->
  <path d="M32,25 L32,28 C32,29 33,30 34,29" fill="none" stroke="#d2a679" stroke-width="1" />
  
  <!-- Mouth -->
  <path d="M30,32 C31,33 33,33 34,32" fill="none" stroke="#a1887f" stroke-width="0.7" />
  
  <!-- Bow Tie -->
  <rect x="30" y="35" width="4" height="2" rx="1" fill="#4a148c" />
  <path d="M28,36 L30,35 L30,37 Z" fill="#4a148c" />
  <path d="M36,36 L34,35 L34,37 Z" fill="#4a148c" />
  
  <!-- Green Carnation -->
  <circle cx="24" cy="38" r="2" fill="url(#flower)" />
  <path d="M23,37 C24,36 25,36 26,37" fill="url(#flower)" />
  <path d="M23,39 C24,40 25,40 26,39" fill="url(#flower)" />
  <rect x="24" y="40" width="1" height="3" fill="#81c784" />
</svg> 