<svg xmlns="http://www.w3.org/2000/svg" viewBox="0 0 64 64" width="64" height="64" shape-rendering="crispEdges">
  <!-- Background - made of pixel blocks -->
  <rect x="0" y="0" width="64" height="64" fill="#000033" />
  
  <!-- Sky background in 8x8 pixel blocks -->
  <rect x="8" y="8" width="8" height="8" fill="#1a2a4a" />
  <rect x="16" y="8" width="8" height="8" fill="#1a2a4a" />
  <rect x="24" y="8" width="8" height="8" fill="#1a2a4a" />
  <rect x="32" y="8" width="8" height="8" fill="#1a2a4a" />
  <rect x="40" y="8" width="8" height="8" fill="#1a2a4a" />
  <rect x="48" y="8" width="8" height="8" fill="#1a2a4a" />
  
  <rect x="8" y="16" width="8" height="8" fill="#1a2a4a" />
  <rect x="16" y="16" width="8" height="8" fill="#1a2a4a" />
  <rect x="24" y="16" width="8" height="8" fill="#1a2a4a" />
  <rect x="32" y="16" width="8" height="8" fill="#1a2a4a" />
  <rect x="40" y="16" width="8" height="8" fill="#1a2a4a" />
  <rect x="48" y="16" width="8" height="8" fill="#1a2a4a" />
  
  <rect x="8" y="24" width="8" height="8" fill="#1a2a4a" />
  <rect x="16" y="24" width="8" height="8" fill="#1a2a4a" />
  <rect x="24" y="24" width="8" height="8" fill="#1a2a4a" />
  <rect x="32" y="24" width="8" height="8" fill="#1a2a4a" />
  <rect x="40" y="24" width="8" height="8" fill="#1a2a4a" />
  <rect x="48" y="24" width="8" height="8" fill="#1a2a4a" />
  
  <rect x="8" y="32" width="8" height="8" fill="#1a2a4a" />
  <rect x="16" y="32" width="8" height="8" fill="#1a2a4a" />
  <rect x="24" y="32" width="8" height="8" fill="#1a2a4a" />
  <rect x="32" y="32" width="8" height="8" fill="#1a2a4a" />
  <rect x="40" y="32" width="8" height="8" fill="#1a2a4a" />
  <rect x="48" y="32" width="8" height="8" fill="#1a2a4a" />
  
  <rect x="8" y="40" width="8" height="8" fill="#1a2a4a" />
  <rect x="16" y="40" width="8" height="8" fill="#1a2a4a" />
  <rect x="24" y="40" width="8" height="8" fill="#1a2a4a" />
  <rect x="32" y="40" width="8" height="8" fill="#1a2a4a" />
  <rect x="40" y="40" width="8" height="8" fill="#1a2a4a" />
  <rect x="48" y="40" width="8" height="8" fill="#1a2a4a" />
  
  <rect x="8" y="48" width="8" height="8" fill="#1a2a4a" />
  <rect x="16" y="48" width="8" height="8" fill="#1a2a4a" />
  <rect x="24" y="48" width="8" height="8" fill="#1a2a4a" />
  <rect x="32" y="48" width="8" height="8" fill="#1a2a4a" />
  <rect x="40" y="48" width="8" height="8" fill="#1a2a4a" />
  <rect x="48" y="48" width="8" height="8" fill="#1a2a4a" />
  
  <!-- Cloud in pixel blocks -->
  <rect x="16" y="16" width="8" height="8" fill="#cccccc" />
  <rect x="24" y="16" width="8" height="8" fill="#cccccc" />
  <rect x="32" y="16" width="8" height="8" fill="#cccccc" />
  <rect x="40" y="16" width="8" height="8" fill="#cccccc" />
  
  <rect x="8" y="24" width="8" height="8" fill="#cccccc" />
  <rect x="16" y="24" width="8" height="8" fill="#cccccc" />
  <rect x="24" y="24" width="8" height="8" fill="#cccccc" />
  <rect x="32" y="24" width="8" height="8" fill="#cccccc" />
  <rect x="40" y="24" width="8" height="8" fill="#cccccc" />
  <rect x="48" y="24" width="8" height="8" fill="#cccccc" />
  
  <!-- Zeus Head (pixelated) -->
  <rect x="24" y="24" width="8" height="8" fill="#f5d0a0" />
  <rect x="32" y="24" width="8" height="8" fill="#f5d0a0" />
  <rect x="24" y="32" width="8" height="8" fill="#f5d0a0" />
  <rect x="32" y="32" width="8" height="8" fill="#f5d0a0" />
  
  <!-- Zeus Crown/Hair (pixelated) -->
  <rect x="24" y="16" width="8" height="8" fill="#ffd700" />
  <rect x="32" y="16" width="8" height="8" fill="#ffd700" />
  <rect x="16" y="24" width="8" height="8" fill="#ffffff" />
  <rect x="40" y="24" width="8" height="8" fill="#ffffff" />
  
  <!-- Zeus Eyes (pixelated) -->
  <rect x="24" y="32" width="4" height="4" fill="#000000" />
  <rect x="36" y="32" width="4" height="4" fill="#000000" />
  
  <!-- Zeus Beard (pixelated) -->
  <rect x="24" y="40" width="8" height="8" fill="#ffffff" />
  <rect x="32" y="40" width="8" height="8" fill="#ffffff" />
  <rect x="28" y="48" width="8" height="8" fill="#ffffff" />
  
  <!-- Lightning Bolt (pixelated) -->
  <rect x="40" y="40" width="8" height="8" fill="#ffd700" />
  <rect x="32" y="48" width="8" height="8" fill="#ffd700" />
  <rect x="40" y="48" width="8" height="8" fill="#ffd700" />
  <rect x="48" y="48" width="8" height="8" fill="#ffd700" />
  <rect x="48" y="56" width="8" height="8" fill="#ffd700" />
  
  <!-- Pixel Glow Effect -->
  <rect x="0" y="0" width="8" height="8" fill="#4a90e2" opacity="0.5" />
  <rect x="56" y="0" width="8" height="8" fill="#4a90e2" opacity="0.5" />
  <rect x="0" y="56" width="8" height="8" fill="#4a90e2" opacity="0.5" />
  <rect x="56" y="56" width="8" height="8" fill="#4a90e2" opacity="0.5" />
</svg> 