<svg width="16" height="16" viewBox="0 0 16 16" xmlns="http://www.w3.org/2000/svg">
  <!-- Level star with NES-style pixel personality -->
  <rect x="7" y="1" width="2" height="2" fill="#FFD700"/>
  <rect x="6" y="3" width="1" height="1" fill="#FFD700"/>
  <rect x="9" y="3" width="1" height="1" fill="#FFD700"/>
  <rect x="5" y="4" width="1" height="1" fill="#FFD700"/>
  <rect x="10" y="4" width="1" height="1" fill="#FFD700"/>
  <rect x="6" y="4" width="4" height="2" fill="#FFD700"/>
  <rect x="4" y="6" width="2" height="2" fill="#FFD700"/>
  <rect x="10" y="6" width="2" height="2" fill="#FFD700"/>
  <rect x="7" y="7" width="2" height="2" fill="#FFD700"/>
  <rect x="6" y="9" width="1" height="1" fill="#FFD700"/>
  <rect x="9" y="9" width="1" height="1" fill="#FFD700"/>
  <rect x="7" y="10" width="2" height="2" fill="#FFD700"/>
  <rect x="6" y="12" width="1" height="1" fill="#FFD700"/>
  <rect x="9" y="12" width="1" height="1" fill="#FFD700"/>
  <!-- Inner sparkle for personality -->
  <rect x="7" y="5" width="1" height="1" fill="#FFFFFF"/>
  <rect x="8" y="5" width="1" height="1" fill="#FFFFFF"/>
</svg>